HIERARCHY
ROOT Hips
{
  OFFSET -31.5692 30.0904 122.763
  CHANNELS 6 Xposition Yposition Zposition Zrotation Xrotation Yrotation
  JOINT LeftUpLeg
  {
    OFFSET 8.64259 1.95398 -2.38835
    CHANNELS 3 Zrotation Xrotation Yrotation
    JOINT LeftLeg
    {
      OFFSET 43.7702 0 0
      CHANNELS 3 Zrotation Xrotation Yrotation
      JOINT LeftFoot
      {
        OFFSET 40.6238 0 0
        CHANNELS 3 Zrotation Xrotation Yrotation
        JOINT LeftToeBase
        {
          OFFSET 12.7242 0 0
          CHANNELS 3 Zrotation Xrotation Yrotation
          End Site
          {
            OFFSET 0 0 0
          }
        }
      }
    }
  }
  JOINT RightUpLeg
  {
    OFFSET -8.2249 1.95398 -2.59336
    CHANNELS 3 Zrotation Xrotation Yrotation
    JOINT RightLeg
    {
      OFFSET 43.5653 0 0
      CHANNELS 3 Zrotation Xrotation Yrotation
      JOINT RightFoot
      {
        OFFSET 40.6238 0 0
        CHANNELS 3 Zrotation Xrotation Yrotation
        JOINT RightToeBase
        {
          OFFSET 12.7242 0 0
          CHANNELS 3 Zrotation Xrotation Yrotation
          End Site
          {
            OFFSET 0 0 0
          }
        }
      }
    }
  }
  JOINT Spine
  {
    OFFSET 0.165834 0.87714 6.61349
    CHANNELS 3 Zrotation Xrotation Yrotation
    JOINT Spine1
    {
      OFFSET 7.38963 1.71661e-005 0
      CHANNELS 3 Zrotation Xrotation Yrotation
      JOINT Spine2
      {
        OFFSET 11.9445 1.14441e-005 0
        CHANNELS 3 Zrotation Xrotation Yrotation
        JOINT Spine3
        {
          OFFSET 14.7254 4.19617e-005 0
          CHANNELS 3 Zrotation Xrotation Yrotation
          JOINT Spine4
          {
            OFFSET 10.9679 0 0
            CHANNELS 3 Zrotation Xrotation Yrotation
            JOINT RightShoulder
            {
              OFFSET 2.46616 -1.6653 3.69651
              CHANNELS 3 Zrotation Xrotation Yrotation
              JOINT RightArm
              {
                OFFSET 13.0012 0 0
                CHANNELS 3 Zrotation Xrotation Yrotation
                JOINT RightForeArm
                {
                  OFFSET 28.7848 1.62311e-005 0
                  CHANNELS 3 Zrotation Xrotation Yrotation
                  JOINT RightHand
                  {
                    OFFSET 26.5688 1.62095e-005 0
                    CHANNELS 3 Zrotation Xrotation Yrotation
                    End Site
                    {
                      OFFSET 0 0 0
                    }
                  }
                }
              }
            }
            JOINT LeftShoulder
            {
              OFFSET 2.38034 -1.29275 -3.7523
              CHANNELS 3 Zrotation Xrotation Yrotation
              JOINT LeftArm
              {
                OFFSET 16.3182 6.07031e-005 0
                CHANNELS 3 Zrotation Xrotation Yrotation
                JOINT LeftForeArm
                {
                  OFFSET 27.0901 0 0
                  CHANNELS 3 Zrotation Xrotation Yrotation
                  JOINT LeftHand
                  {
                    OFFSET 24.5451 1.51738e-005 0
                    CHANNELS 3 Zrotation Xrotation Yrotation
                    End Site
                    {
                      OFFSET 0 0 0
                    }
                  }
                }
              }
            }
            JOINT Neck
            {
              OFFSET 5.0226 -0.0266342 0
              CHANNELS 3 Zrotation Xrotation Yrotation
              JOINT Head
              {
                OFFSET 6.69364 2.86102e-005 0
                CHANNELS 3 Zrotation Xrotation Yrotation
                End Site
                {
                  OFFSET 0 0 0
                }
              }
            }
          }
        }
      }
    }
  }
}
MOTION
Frames:	7
Frame Time:	0.0416667
230.382 100.919 235.976 -103.728 -58.8336 -101.479 -173.97 -2.34254 89.8137 -15.0884 16.5344 1.59942 65.0214 3.42037 3.39315 31.1768 0.49296 2.06389 171.308 -5.84916 86.1377 -12.2396 -15.8762 -2.8401 65.5776 -3.93471 0.270993 24.8349 0.998423 3.5215 0.140264 8.22827 -90.0287 10.4175 0.266307 -0.0804358 -1.25348 0.262502 -0.0920825 -23.7888 0.278172 0.00428308 -3.7762 0.278167 0.00426636 87.9706 -32.5351 -109.683 38.0047 -5.21546 -3.67043 3.3636 -25.7518 -16.8577 -25.8653 0.235769 -10.6968 -89.8827 -53.8166 79.686 -21.637 9.25381 -12.953 -5.13581 6.49838 -0.00591635 -12.7664 6.00962 -64.2687 7.43407 0.0855024 -6.38129 -6.27047 1.29573 3.77888 
230.4 100.854 236.192 -104.109 -58.4054 -101.927 -174.298 -2.83929 89.3484 -14.9437 16.4275 1.86106 64.5276 3.11933 3.21475 32.6792 0.110405 5.8428 171.248 -5.58874 85.8933 -13.4017 -16.1489 -3.01221 66.0134 -4.12555 0.179388 24.9994 0.895426 3.65433 0.165398 8.25915 -90.0319 10.3557 0.314947 -0.0907898 -1.3152 0.310629 -0.104565 -23.8507 0.327659 0.00828238 -3.83801 0.327659 0.0082724 87.7825 -31.8434 -110.326 39.0117 -4.76409 -3.10883 2.99989 -25.2119 -16.9913 -26.4897 0.317775 -10.8675 -90.0347 -53.8903 79.4828 -21.8855 8.60979 -13.067 -3.92331 7.21078 -0.0059252 -13.7868 6.61595 -64.005 7.40283 -0.0889046 -6.42401 -6.15155 1.13503 3.79432 
230.356 100.794 236.258 -104.259 -58.4685 -102.045 -174.166 -2.63338 89.4813 -15.593 16.0287 1.73955 65.2643 3.66605 3.10951 32.3475 0.575819 3.71207 171.158 -5.19607 85.8356 -14.4241 -16.2175 -2.90149 66.3647 -4.33169 0.0175928 25.1919 0.826601 3.59202 0.115977 8.27324 -90.0525 10.3276 0.207113 -0.122193 -1.34329 0.201526 -0.131191 -23.8786 0.234263 -0.0543012 -3.86593 0.234252 -0.0542957 87.8098 -31.7667 -110.307 38.8479 -4.93024 -3.05065 3.14556 -25.1916 -16.9894 -26.8147 0.32958 -10.8501 -89.8647 -53.9896 79.7457 -21.7194 8.70896 -13.0301 -4.61656 8.09164 -0.00593745 -13.5235 6.33322 -62.8186 7.28753 0.1392 -6.36444 -6.0785 1.3409 3.87369 
230.387 100.68 236.288 -104.498 -58.3093 -102.246 -173.593 -2.27022 89.8761 -16.661 16.6627 1.10648 65.4536 3.75995 2.84859 33.0582 0.820612 4.10328 171.318 -4.68661 85.8597 -15.7918 -16.1059 -3.02127 66.7941 -4.64286 -0.0298753 25.4891 0.667806 3.72276 0.117014 8.33457 -90.0817 10.2048 0.196003 -0.178865 -1.46611 0.187917 -0.187321 -24.0013 0.240682 -0.111691 -3.98868 0.240684 -0.111697 88.1259 -31.6395 -109.756 38.6797 -4.81482 -3.29129 3.11495 -25.6551 -16.7946 -25.7631 0.38695 -11.4782 -89.9987 -54.2051 79.5969 -21.1178 9.45943 -13.2216 -4.56724 7.03682 -0.00592295 -14.4315 6.56425 -60.7723 7.55865 0.106435 -6.04754 -5.81525 1.27037 3.73018 
230.428 100.522 236.265 -104.803 -57.9821 -102.68 -173.649 -1.82351 89.6044 -17.9663 16.5849 1.05406 66.0275 4.37787 3.97902 33.0309 0.709242 4.43798 171.125 -3.79543 85.5072 -17.8577 -16.5206 -2.95579 67.5717 -5.17871 -0.177507 25.6676 0.584276 3.75017 0.148376 8.39187 -90.0654 10.0903 0.265823 -0.152011 -1.58065 0.258898 -0.16357 -24.116 0.299231 -0.0650827 -4.10336 0.29923 -0.0650992 87.7329 -32.0395 -110.339 38.368 -4.74689 -2.70299 2.84007 -25.1763 -17.4775 -25.6496 0.430453 -11.6207 -90.2117 -53.9036 79.232 -20.9807 9.66578 -13.4217 -4.70018 7.87378 -0.00593428 -15.0953 6.67093 -58.567 7.41331 0.102316 -6.27466 -5.34938 1.32152 3.63085 
230.594 100.282 236.218 -104.493 -57.1966 -102.827 -174.223 -1.0768 88.755 -19.5225 14.9653 1.22274 66.5313 4.49144 3.3564 33.174 0.306894 6.06397 171.187 -1.98762 84.9735 -20.9979 -16.9856 -3.14525 68.5291 -5.75899 -0.0217003 25.9744 0.542546 3.35295 0.19557 8.43044 -90.0608 10.0133 0.362156 -0.150561 -1.65762 0.355154 -0.166363 -24.1932 0.390637 -0.0347676 -4.18053 0.390648 -0.0347602 88.0433 -31.3576 -110.032 38.5992 -4.69171 -2.61616 2.81516 -24.5895 -17.4831 -26.4674 0.495058 -11.6188 -90.4498 -54.1896 78.9499 -20.8762 9.65042 -13.5723 -4.44499 8.87046 -0.00594949 -15.5852 6.65718 -56.1907 7.06099 0.13245 -6.01167 -5.38858 1.2691 4.19879 
230.419 100.004 236.115 -105.237 -57.055 -103.609 -173.716 -0.737684 89.0545 -21.1285 15.4466 0.767875 67.3433 5.15168 3.75361 33.5768 0.700309 5.43872 171.132 -1.14666 84.8571 -23.5383 -17.4176 -3.06341 69.3159 -6.44629 -0.949263 25.9086 0.531767 3.52513 0.159334 8.52889 -90.0445 9.81624 0.297528 -0.112205 -1.85467 0.292303 -0.125197 -24.3901 0.317468 -0.0175979 -4.37746 0.317485 -0.0176075 87.9453 -31.5945 -110.121 38.6112 -4.21188 -2.70742 2.49031 -25.0924 -17.2919 -25.8738 0.524425 -12.0235 -90.1725 -53.9828 79.304 -21.0219 9.2371 -13.632 -4.09052 10.1812 -0.00597238 -16.6367 6.87387 -53.5329 7.4347 0.175845 -5.68149 -5.52026 1.27378 3.28245 
